<svg width="69" height="69" xmlns="http://www.w3.org/2000/svg"><path d="M27.94 67.5a12.08 12.08 0 0 1-2.5.44 13.68 13.68 0 0 1-5.13-.49 10.79 10.79 0 0 1-5.51-3.95l-.38-.58-.32-.53c-.86-1.39-1.6-2.77-2.37-4.15-1.47-2.79-2.84-5.6-4.2-8.4-1.37-2.8-2.6-5.65-3.9-8.46l-.94-2.17-.46-1.07-.11-.26-.16-.39-.26-.72a14.7 14.7 0 0 1-.75-5.78 11.24 11.24 0 0 1 2.17-5.97 17.17 17.17 0 0 1 4-3.9c.38-.27.73-.5 1.11-.75l.59-.35.32-.18.07-.04.11-.07 2.01-1.14 3.96-2.32c1.3-.77 2.66-1.53 3.96-2.36.65-.38 1.3-.81 1.95-1.22l1.72-1.12c.17-.14.32-.3.45-.47a4.03 4.03 0 0 0 .8-2.06c.05-.28.07-.56.07-.84V5.75a6.03 6.03 0 0 1 1.36-3.5A6.13 6.13 0 0 1 30.05 0l10.24.01a6.33 6.33 0 0 1 2.7.69 6.1 6.1 0 0 1 3.2 4.38c0 .16.05.31.07.46V7.81a2.85 2.85 0 0 0 .07.75A5.38 5.38 0 0 0 48 11.6l.13.1.18.13.98.65 1.9 1.3 3.8 2.65 7.6 5.3.96.64.48.33.14.1.08.06.15.12.3.26c.7.64 1.34 1.36 1.9 2.14a11.98 11.98 0 0 1 2.21 5.33 11.08 11.08 0 0 1-.3 4.46c-.07.24-.13.48-.22.7l-.12.34-.06.17-.06.13-1.72 4.38c-1.16 2.9-2.38 5.78-3.64 8.65-1.3 2.88-2.6 5.73-4.19 8.58-.37.71-.8 1.42-1.3 2.14-.22.36-.47.73-.76 1.1l-.42.53-.4.49a18.65 18.65 0 0 1-3.93 3.64c-.83.54-1.71.97-2.65 1.3-.96.33-1.96.52-2.97.57a13.5 13.5 0 0 1-5.6-1.04c-.85-.33-1.68-.73-2.47-1.19-.77-.48-1.5-1-2.2-1.58a34.22 34.22 0 0 1-3.6-3.53 58.2 58.2 0 0 1-5.82-7.81 50.22 50.22 0 0 1-4.49-8.77 25.99 25.99 0 0 1-1.42-5.08c-.07-.46-.12-.94-.15-1.45v-1.47c.05-.94.18-1.87.39-2.78a14.56 14.56 0 0 1 6.47-9.35c1.6-1.01 3.35-1.73 5.2-2.14.87-.2 1.76-.34 2.65-.42.45-.04.89-.06 1.3-.08.42-.02.94 0 1.4 0a14.15 14.15 0 0 1 5.5 1.4 14.54 14.54 0 0 1 8.25 14.02c0 .24-.05.48-.08.72l-.13.72-.16.71-.19.65a19.53 19.53 0 0 1-11.8 12.9 30.01 30.01 0 0 1-9.47 2.01c-3.15.17-6.3 0-9.4-.5a.52.52 0 0 1 .03-1.03l2.29-.15c.76-.06 1.52-.1 2.28-.2l1.14-.13 1.14-.15c.38-.04.76-.1 1.12-.17.36-.05.76-.1 1.1-.2 1.46-.26 2.9-.62 4.32-1.07a24.8 24.8 0 0 0 4-1.62 16.03 16.03 0 0 0 6.2-5.37 15.03 15.03 0 0 0 1.78-3.62c.22-.64.4-1.3.54-1.95l.1-.51.06-.43.04-.44v-.43a9.26 9.26 0 0 0-8.95-9.2h-.9c-.33.01-.66.04-.98.08-.64.06-1.28.17-1.9.32-1.18.27-2.3.75-3.33 1.4a8.57 8.57 0 0 0-2.4 2.36 9.42 9.42 0 0 0-1.39 3.2c-.13.6-.22 1.2-.26 1.8V37.17c0 .3.04.59.08.88.21 1.33.56 2.64 1.04 3.9a51.24 51.24 0 0 0 8.93 15.01c.9 1.08 1.9 2.08 2.96 3a10.3 10.3 0 0 0 3.2 2c1.07.48 2.24.73 3.42.72a5.8 5.8 0 0 0 3.04-1 13.94 13.94 0 0 0 2.86-2.64l.34-.4c.13-.14.2-.25.3-.38a45.31 45.31 0 0 0 1.71-2.65c1.45-2.57 2.77-5.34 4.04-8.12 1.27-2.78 2.48-5.62 3.66-8.46l1.75-4.3.05-.12.04-.11.08-.2.13-.42a5.78 5.78 0 0 0 .18-2.45 6.99 6.99 0 0 0-1.3-3.17 9.9 9.9 0 0 0-1.2-1.36l-.14-.12h.04-.03l-.1-.07-.47-.33-.94-.65-7.56-5.34-3.8-2.65-1.9-1.3-.94-.65-.3-.21-.33-.24a8.88 8.88 0 0 1-2.4-3.1 10.82 10.82 0 0 1-1.07-4.35V5.94a1.48 1.48 0 0 0-.14-.43 1.8 1.8 0 0 0-.27-.39c-.12-.1-.24-.19-.38-.26a1.36 1.36 0 0 0-.42-.13H30.12a1.42 1.42 0 0 0-.92.5 1.3 1.3 0 0 0-.28.77v2.2c0 .5-.03 1-.1 1.49a9.48 9.48 0 0 1-.86 2.97 8.3 8.3 0 0 1-2.01 2.61l-.2.16-.14.1-.1.1-.24.15-.49.35-.95.65c-.65.45-1.3.89-1.9 1.34-1.28.9-2.52 1.83-3.77 2.76l-7.22 5.4c-.95.76-1.81 1.63-2.55 2.6a5.21 5.21 0 0 0-1.05 2.66 9.65 9.65 0 0 0 .29 3.42l.11.4.05.15.1.27.4 1.08.82 2.2a662.21 662.21 0 0 0 6.7 17.24c.57 1.4 1.16 2.83 1.8 4.16l.22.5.22.41a7.5 7.5 0 0 0 1.77 2.13 9.1 9.1 0 0 0 3.52 1.69c.68.16 1.38.26 2.08.32.35 0 .7.04 1.07.04.34.01.69 0 1.03-.04h.06a1 1 0 0 1 1.09.92 1.02 1.02 0 0 1-.74 1.06Z" fill="#8330C2"/></svg>
